PathFileType	4	(X/Y/Z)	G:\Shared drives\HPL_Drive\Pi-Spi Study\20230118_AMCsubject1\Trimmed_right_flex_18001_rotated.trc
DataRate	CameraRate	NumFrames	NumMarkers	Units	OrigDataRate	OrigDataStartFrame	OrigNumFrames
200.00	200.00	       11	35	mm	200.00	101	       200
Frame#	Time	C7			Sternum			r_AMC1			r_AMC2			r_AMC3			l_AMC1			l_AMC2			l_AMC3			PX			T8			r_humerous			r_elbow_medial			r_elbow_lateral			r_forearm			r_wrist_radius			r_wrist_ulna			r_MCP_1			r_MCP_3			l_humerous			l_elbow_medial			l_elbow_lateral			l_forearm			l_wrist_radius			l_wrist_ulna			l_MCP_1			l_MCP_3			r_ASIS			r_PSIS			l_ASIS			l_PSIS			r_IC			l_IC			TS			AI			AA			
		X1	Y1	Z1	X2	Y2	Z2	X3	Y3	Z3	X4	Y4	Z4	X5	Y5	Z5	X6	Y6	Z6	X7	Y7	Z7	X8	Y8	Z8	X9	Y9	Z9	X10	Y10	Z10	X11	Y11	Z11	X12	Y12	Z12	X13	Y13	Z13	X14	Y14	Z14	X15	Y15	Z15	X16	Y16	Z16	X17	Y17	Z17	X18	Y18	Z18	X19	Y19	Z19	X20	Y20	Z20	X21	Y21	Z21	X22	Y22	Z22	X23	Y23	Z23	X24	Y24	Z24	X25	Y25	Z25	X26	Y26	Z26	X27	Y27	Z27	X28	Y28	Z28	X29	Y29	Z29	X30	Y30	Z30	X31	Y31	Z31	X32	Y32	Z32	X33	Y33	Z33	X34	Y34	Z34	X35	Y35	Z35	

101	0.5	181.4551	1371.6702	-233.0024	319.3796	1322.6013	-229.0955	166.5446	1337.3298	-94.6581	199.0081	1372.3002	-79.3165	193.7307	1393.4054	-118.672	194.3892	1314.2457	-387.6338	229.5698	1308.4457	-424.7872	252.4361	1349.3706	-399.7805	387.5969	1132.0196	-216.6143	153.1503	1188.4419	-226.8264	271.8436	1474.4246	-75.8418	375.8637	1562.1163	-8.2832	319.2551	1577.8125	12.3312	343.9338	1742.0784	30.599	342.9446	1816.3505	15.7436	388.1406	1803.8957	36.5798	351.4861	1901.3782	20.3743	397.6024	1892.9641	33.8036	316.871	1120.6992	-424.3945	265.2047	986.9039	-376.8073	259.9263	981.649	-430.6426	306.7163	836.3176	-468.5065	355.9418	769.0519	-476.5282	314.834	761.1575	-460.492	365.5351	691.2877	-490.883	324.6212	685.316	-468.6143	349.7147	910.3755	-73.6826	164.4397	930.1374	-161.2887	359.5505	892.4343	-331.1281	169.5523	922.9554	-262.9745	268.6137	971.9458	-47.8775	273.1542	939.0626	-371.4713	106.0317	1284.8525	-124.7346	142.2158	1208.1073	-67.7116	157.4308	1373.5963	-22.5748
102	0.505	181.4618	1371.6853	-232.9713	319.3891	1322.6232	-229.0652	166.5929	1337.3411	-94.6514	199.0416	1372.2606	-79.3021	193.7749	1393.4338	-118.63	194.4142	1314.2744	-387.6259	229.5746	1308.4814	-424.7654	252.4636	1349.4109	-399.7569	387.7001	1132.0696	-216.6059	153.1784	1188.4421	-226.8377	271.8845	1474.4102	-75.809	375.8962	1561.9976	-8.3215	319.3266	1577.7885	12.3684	344.0378	1742.01	30.6506	343.1796	1816.2319	15.7981	388.2433	1803.8549	36.6325	351.7977	1901.5239	20.3899	397.7357	1892.9069	33.8795	316.9279	1120.7717	-424.3583	265.4676	987.1609	-377.0686	260.0026	981.6892	-430.6252	306.8343	836.364	-468.5182	356.0424	769.0856	-476.5662	314.9504	761.1985	-460.5332	365.6451	691.3922	-490.9341	324.7486	685.3609	-468.6606	349.7527	910.3605	-73.6878	164.4686	930.1587	-161.2793	359.5715	892.4351	-331.1354	169.5534	922.9591	-262.9789	268.6285	971.9246	-47.8474	273.1129	939.1181	-371.4714	106.0449	1284.8885	-124.7446	142.2266	1208.1106	-67.7216	157.4752	1373.6255	-22.5711
103	0.51	181.5082	1371.6919	-232.9528	319.4105	1322.6621	-229.0574	166.6205	1337.3355	-94.6258	199.0932	1372.281	-79.2601	193.8359	1393.4177	-118.6203	194.4465	1314.3331	-387.5993	229.5857	1308.5388	-424.76	252.495	1349.469	-399.731	387.6628	1132.0248	-216.6149	153.1967	1188.4724	-226.8325	271.9939	1474.4122	-75.8039	375.9627	1561.9601	-8.2527	319.3799	1577.7762	12.4282	344.1264	1741.9963	30.725	343.2686	1816.2274	15.8496	388.2726	1803.8126	36.7785	351.886	1901.5292	20.5267	397.8395	1892.8252	33.9782	316.9429	1120.8607	-424.3806	265.5521	987.2142	-377.0667	260.0791	981.7341	-430.6302	306.9301	836.4547	-468.5374	356.1206	769.16	-476.5665	315.0768	761.2513	-460.536	365.763	691.4559	-490.9442	324.868	685.4199	-468.7014	349.7821	910.3531	-73.6877	164.4842	930.1455	-161.2969	359.5949	892.4439	-331.1575	169.591	922.9746	-262.962	268.6734	971.9539	-47.8779	273.135	939.1439	-371.5314	106.0851	1284.9283	-124.7483	142.2239	1208.1119	-67.7439	157.5181	1373.6202	-22.5832
104	0.515	181.5126	1371.7057	-232.9052	319.4408	1322.6711	-229.0199	166.677	1337.3772	-94.5541	199.1269	1372.3065	-79.2246	193.8533	1393.4177	-118.5881	194.4557	1314.3898	-387.5874	229.6269	1308.6173	-424.7309	252.4934	1349.5189	-399.7138	387.7019	1132.0459	-216.6382	153.1906	1188.4824	-226.8104	272.0869	1474.4042	-75.7852	376.6853	1561.9867	-7.6715	319.4321	1577.7696	12.4479	344.1275	1741.9003	30.8147	343.2194	1816.2637	15.9563	388.4202	1803.7766	36.8087	352.0133	1901.4076	20.631	397.9372	1892.7719	34.0958	317.0074	1120.8843	-424.361	265.5986	987.2489	-377.0689	260.2193	981.9866	-430.6715	306.996	836.5075	-468.5552	356.2271	769.2658	-476.5998	315.1192	761.3315	-460.5911	366.0062	691.6682	-491.6241	324.9714	685.4923	-468.7203	349.8095	910.4317	-73.6972	164.5113	930.1591	-161.2748	359.6224	892.4554	-331.1709	169.6119	922.9739	-262.959	268.7189	971.9183	-47.9109	272.9189	939.3204	-371.4955	106.1012	1284.9469	-124.7698	142.2311	1208.1322	-67.7483	157.5318	1373.6189	-22.5821
105	0.52	181.5233	1371.7117	-232.8696	319.4851	1322.6649	-229.0007	166.7059	1337.3564	-94.5235	199.1932	1372.3012	-79.2309	193.9113	1393.4424	-118.5756	194.5013	1314.4293	-387.5794	229.6453	1308.6472	-424.7062	252.5465	1349.5728	-399.6956	387.6804	1132.0819	-216.6081	153.226	1188.4969	-226.8185	272.136	1474.3878	-75.7723	376.769	1561.9677	-7.6191	319.4804	1577.74	12.4801	344.2304	1741.8868	30.8937	343.4588	1816.1488	16.0081	388.4677	1803.7723	36.9481	352.0719	1901.4916	20.7194	398.0329	1892.7217	34.1843	317.0638	1120.9506	-424.3908	265.6569	987.2713	-377.0894	260.2089	981.8192	-430.6612	307.0767	836.5557	-468.5768	356.3238	769.2971	-476.5922	315.2602	761.4024	-460.5936	366.1007	691.7706	-491.6298	325.0825	685.5275	-468.7242	349.8213	910.3784	-73.7314	164.5495	930.1597	-161.3043	359.5914	892.4744	-331.1615	169.6141	923.0067	-262.9743	268.6642	972.0194	-47.9074	273.0815	939.2322	-371.4721	106.1505	1284.9785	-124.7655	142.2755	1208.1635	-67.7999	157.5797	1373.6146	-22.5705
106	0.525	181.5469	1371.7227	-232.8467	319.519	1322.7085	-228.9666	166.7672	1337.3612	-94.4365	199.241	1372.3066	-79.2052	193.9745	1393.4193	-118.5624	194.4983	1314.4711	-387.5673	229.6568	1308.7065	-424.6972	252.5643	1349.6139	-399.6719	387.7084	1132.0504	-216.5618	153.2562	1188.5111	-226.8332	272.2103	1474.3706	-75.7452	376.7995	1561.9216	-7.5456	319.5582	1577.7244	12.5174	344.3193	1741.8376	30.9629	343.6199	1816.1232	16.1165	388.5871	1803.7423	37.0426	352.1894	1901.4919	20.8453	398.1668	1892.6693	34.2735	317.0431	1121.1061	-424.4031	265.707	987.3048	-377.1224	260.277	981.8668	-430.6622	307.119	836.6086	-468.5992	356.361	769.4063	-476.6454	315.3768	761.4719	-460.6418	366.1726	691.8449	-491.6392	325.1624	685.592	-468.7768	349.7459	910.3851	-73.6866	164.5543	930.1675	-161.2946	359.6525	892.4871	-331.1861	169.6447	922.9938	-262.9407	268.6905	972.0403	-47.9069	273.1715	939.1671	-371.447	106.1809	1284.9669	-124.7942	142.2451	1208.1355	-67.7596	157.6087	1373.6061	-22.5741
107	0.53	181.5721	1371.7302	-232.8312	319.5346	1322.6998	-228.9708	166.7658	1337.3815	-94.4591	199.2619	1372.3013	-79.19	194.0323	1393.4249	-118.5291	194.5396	1314.52	-387.5434	229.7167	1308.7596	-424.6879	252.5929	1349.6478	-399.6298	387.7079	1132.0424	-216.5647	153.2879	1188.5477	-226.846	272.3108	1474.3578	-75.7278	376.8481	1561.8779	-7.4771	319.4058	1577.4541	12.1453	344.4434	1741.8221	31.0435	343.5659	1816.1731	16.2568	388.7088	1803.6764	37.1194	352.3091	1901.3943	20.9498	398.2502	1892.6758	34.4108	317.0796	1121.1904	-424.4057	265.7505	987.385	-377.138	260.3682	981.8951	-430.6767	307.1856	836.6432	-468.6074	356.4148	769.5162	-476.6727	315.4911	761.5353	-460.6711	366.2615	691.9347	-491.6709	325.2761	685.6267	-468.7939	349.8925	910.4153	-73.7059	164.5658	930.1738	-161.3025	359.6569	892.4969	-331.1853	169.6487	923.0041	-262.9519	268.7548	971.9914	-47.9114	273.1052	939.259	-371.5011	106.2117	1284.9897	-124.7814	142.2757	1208.1229	-67.7798	157.6589	1373.5906	-22.5384
108	0.535	181.5848	1371.7436	-232.7934	319.5635	1322.7412	-228.9231	166.8022	1337.3533	-94.4403	199.3212	1372.2977	-79.1856	194.0869	1393.4242	-118.5066	194.563	1314.5686	-387.5518	229.7463	1308.8065	-424.6879	252.6299	1349.6901	-399.615	387.7384	1132.0925	-216.5886	153.2905	1188.5636	-226.8538	272.3775	1474.3527	-75.7021	376.9189	1561.9448	-7.4376	319.5006	1577.4487	12.1989	344.6128	1741.8928	31.0967	343.8333	1816.0467	16.319	388.8406	1803.6448	37.1915	352.4362	1901.3423	21.0824	398.3117	1892.6608	34.5641	317.1496	1121.2039	-424.4312	265.7858	987.4191	-377.1441	260.4345	981.9442	-430.6806	307.2161	836.6904	-468.6396	356.472	769.5781	-476.6495	315.5437	761.5907	-460.7477	366.3404	691.9991	-491.6947	325.3718	685.6798	-468.8136	349.8541	910.4039	-73.7174	164.6013	930.1782	-161.2732	359.6673	892.4846	-331.1774	169.6645	922.9935	-262.9717	268.7662	972.0167	-47.9145	273.0962	939.2568	-371.4646	106.2585	1284.9783	-124.7778	142.2884	1208.1101	-67.7929	157.6747	1373.5365	-22.5319
109	0.54	181.6157	1371.7604	-232.7715	319.6023	1322.7391	-228.9088	166.838	1337.3921	-94.4264	199.372	1372.2816	-79.1655	194.1313	1393.4353	-118.4964	194.6277	1314.6118	-387.5201	229.7688	1308.874	-424.6718	252.6754	1349.7258	-399.596	387.7601	1132.0708	-216.5837	153.3175	1188.5768	-226.8464	272.4471	1474.3489	-75.6829	376.9673	1561.9268	-7.382	319.7689	1577.6325	12.6609	344.7063	1741.8605	31.1717	343.9511	1816.0031	16.4179	388.9541	1803.592	37.2721	352.692	1901.4609	21.1892	398.4739	1892.6785	34.7082	317.2082	1121.2668	-424.4459	265.854	987.4539	-377.1662	260.4792	981.9786	-430.699	307.2904	836.7478	-468.648	356.6006	769.574	-476.68	315.632	761.6473	-460.7597	366.4052	691.904	-491.1237	325.4759	685.7604	-468.8497	349.894	910.4128	-73.7122	164.6107	930.1776	-161.2893	359.6824	892.4854	-331.1806	169.6649	923.0145	-262.9672	268.7658	972.0757	-47.9418	273.1827	939.2624	-371.5087	106.2675	1284.9939	-124.7686	142.3348	1208.0831	-67.8032	157.6862	1373.5387	-22.4673
110	0.545	181.6356	1371.7767	-232.7468	319.6326	1322.7496	-228.8987	166.8833	1337.3863	-94.4121	199.4154	1372.314	-79.1127	194.19	1393.4454	-118.4622	194.6443	1314.6469	-387.5033	229.8378	1308.8954	-424.6527	252.7133	1349.7501	-399.5687	387.7625	1132.1091	-216.5798	153.3146	1188.6105	-226.8454	272.512	1474.3406	-75.6603	377.0951	1561.8953	-7.4114	319.8922	1577.6088	12.6968	344.8295	1741.8331	31.2694	344.0811	1815.973	16.5161	389.0479	1803.5718	37.3935	352.6701	1901.3146	21.3689	398.584	1892.5898	34.806	317.2242	1121.3535	-424.4429	265.9012	987.5186	-377.2044	260.8456	982.9769	-430.7386	307.3455	836.7796	-468.6385	356.6936	769.6318	-476.7144	315.7193	761.703	-460.8068	366.5458	691.9731	-491.1486	325.5856	685.7822	-468.871	349.9763	910.4133	-73.7328	164.6332	930.1935	-161.3	359.666	892.4902	-331.1533	169.6829	923.0039	-262.9902	268.7668	972.0892	-47.9411	273.1587	939.312	-371.5174	106.3181	1284.9921	-124.7663	142.3468	1207.7671	-68.2086	157.7063	1373.4852	-22.4355
111	0.55	181.6487	1371.7893	-232.7449	319.677	1322.7927	-228.8833	166.8964	1337.3928	-94.3912	199.4783	1372.2893	-79.0784	194.1974	1393.4359	-118.4189	194.6877	1314.689	-387.4993	229.8582	1308.958	-424.6497	252.7413	1349.7787	-399.5385	387.7787	1132.1572	-216.5985	153.329	1188.6283	-226.8316	272.5421	1474.3453	-75.6176	377.1885	1561.8331	-7.3782	319.9448	1577.5772	12.7581	344.9658	1741.7769	31.3411	344.166	1815.9568	16.6021	389.1482	1803.5101	37.4719	352.7797	1901.2694	21.5202	398.6741	1892.5253	34.9538	317.2859	1121.4158	-424.4583	265.9456	987.545	-377.2225	260.6133	982.0455	-430.7402	307.3963	836.8268	-468.695	356.7218	769.7287	-476.7413	315.8328	761.7679	-460.7957	366.5482	692.2717	-491.7448	325.6633	685.8246	-468.8887	349.9233	910.3964	-73.7264	164.6617	930.1926	-161.304	359.695	892.5037	-331.1756	169.7033	923.03	-262.9958	268.7997	972.0706	-47.9504	273.2124	939.3077	-371.5475	106.3389	1284.974	-124.7667	142.436	1207.8192	-68.2266	157.7583	1373.4374	-22.4212
